<svg id="visual" viewBox="0 0 3000 3000" width="3000" height="3000" xmlns="http://www.w3.org/2000/svg" xmlns:xlink="http://www.w3.org/1999/xlink" version="1.1"><rect x="0" y="0" width="3000" height="3000" fill="#001220"></rect><g fill="#A7233A"><circle r="234" cx="2765" cy="2647"></circle><circle r="15" cx="700" cy="229"></circle><circle r="213" cx="1561" cy="1935"></circle><circle r="73" cx="2140" cy="1392"></circle><circle r="57" cx="2465" cy="300"></circle><circle r="206" cx="69" cy="920"></circle><circle r="158" cx="433" cy="1834"></circle><circle r="174" cx="1905" cy="2578"></circle><circle r="164" cx="1475" cy="1228"></circle><circle r="232" cx="593" cy="2505"></circle><circle r="197" cx="2911" cy="1482"></circle><circle r="145" cx="1236" cy="37"></circle><circle r="67" cx="182" cy="38"></circle><circle r="17" cx="1830" cy="459"></circle><circle r="193" cx="189" cy="1383"></circle><circle r="195" cx="1399" cy="2682"></circle><circle r="204" cx="2689" cy="2127"></circle><circle r="57" cx="874" cy="1002"></circle><circle r="159" cx="1388" cy="610"></circle><circle r="190" cx="2814" cy="733"></circle><circle r="220" cx="2122" cy="2066"></circle><circle r="126" cx="2172" cy="805"></circle><circle r="132" cx="227" cy="2878"></circle><circle r="231" cx="895" cy="2987"></circle><circle r="69" cx="1117" cy="1607"></circle><circle r="140" cx="1011" cy="2297"></circle><circle r="180" cx="31" cy="2301"></circle><circle r="229" cx="2941" cy="238"></circle><circle r="130" cx="2011" cy="4"></circle><circle r="74" cx="2290" cy="2925"></circle><circle r="220" cx="362" cy="556"></circle></g></svg>