<svg id="visual" viewBox="0 0 3000 3000" width="3000" height="3000" xmlns="http://www.w3.org/2000/svg" xmlns:xlink="http://www.w3.org/1999/xlink" version="1.1"><rect x="0" y="0" width="3000" height="3000" fill="#ac09fd"></rect><defs><linearGradient id="grad1_0" x1="0%" y1="0%" x2="100%" y2="100%"><stop offset="30%" stop-color="#fbae3c" stop-opacity="1"></stop><stop offset="70%" stop-color="#fbae3c" stop-opacity="1"></stop></linearGradient></defs><defs><linearGradient id="grad1_1" x1="0%" y1="0%" x2="100%" y2="100%"><stop offset="30%" stop-color="#fbae3c" stop-opacity="1"></stop><stop offset="70%" stop-color="#ac09fd" stop-opacity="1"></stop></linearGradient></defs><defs><linearGradient id="grad2_0" x1="0%" y1="0%" x2="100%" y2="100%"><stop offset="30%" stop-color="#fbae3c" stop-opacity="1"></stop><stop offset="70%" stop-color="#fbae3c" stop-opacity="1"></stop></linearGradient></defs><defs><linearGradient id="grad2_1" x1="0%" y1="0%" x2="100%" y2="100%"><stop offset="30%" stop-color="#ac09fd" stop-opacity="1"></stop><stop offset="70%" stop-color="#fbae3c" stop-opacity="1"></stop></linearGradient></defs><g transform="translate(3000, 0)"><path d="M0 1272.8C-211.4 1222.3 -422.9 1171.9 -619 1072.1C-815.1 972.4 -995.9 823.3 -1102.3 636.4C-1208.7 449.5 -1240.7 224.7 -1272.8 0L0 0Z" fill="#ff0f6f"></path><path d="M0 636.4C-105.7 611.2 -211.4 585.9 -309.5 536.1C-407.6 486.2 -497.9 411.7 -551.1 318.2C-604.3 224.7 -620.4 112.4 -636.4 0L0 0Z" fill="#fbae3c"></path></g><g transform="translate(0, 3000)"><path d="M0 -1272.8C213.6 -1226 427.2 -1179.3 623 -1079.1C818.8 -978.8 996.9 -825.2 1102.3 -636.4C1207.6 -447.6 1240.2 -223.8 1272.8 0L0 0Z" fill="#ff0f6f"></path><path d="M0 -636.4C106.8 -613 213.6 -589.6 311.5 -539.5C409.4 -489.4 498.5 -412.6 551.1 -318.2C603.8 -223.8 620.1 -111.9 636.4 0L0 0Z" fill="#fbae3c"></path></g></svg>