<svg id="visual" viewBox="0 0 3000 3000" width="3000" height="3000" xmlns="http://www.w3.org/2000/svg" xmlns:xlink="http://www.w3.org/1999/xlink" version="1.1"><rect x="0" y="0" width="3000" height="3000" fill="#001829"></rect><g fill="none" stroke="#297EA6" stroke-width="4"><path d="M0 -286.9L64.4 -88.7L272.9 -88.7L104.2 33.9L168.6 232.1L0 109.6L-168.6 232.1L-104.2 33.9L-272.9 -88.7L-64.4 -88.7Z" transform="translate(1047 2738)"></path><path d="M0 -17.9L4 -5.5L17.1 -5.5L6.5 2.1L10.5 14.5L0 6.8L-10.5 14.5L-6.5 2.1L-17.1 -5.5L-4 -5.5Z" transform="translate(1486 138)"></path><path d="M0 -173.7L39 -53.7L165.2 -53.7L63.1 20.5L102.1 140.5L0 66.3L-102.1 140.5L-63.1 20.5L-165.2 -53.7L-39 -53.7Z" transform="translate(2957 756)"></path><path d="M0 -163.3L36.7 -50.5L155.3 -50.5L59.3 19.3L96 132.1L0 62.4L-96 132.1L-59.3 19.3L-155.3 -50.5L-36.7 -50.5Z" transform="translate(514 193)"></path><path d="M0 -135L30.3 -41.7L128.4 -41.7L49 15.9L79.3 109.2L0 51.6L-79.3 109.2L-49 15.9L-128.4 -41.7L-30.3 -41.7Z" transform="translate(246 2642)"></path><path d="M0 -129.3L29 -40L123 -40L47 15.3L76 104.6L0 49.4L-76 104.6L-47 15.3L-123 -40L-29 -40Z" transform="translate(335 1591)"></path><path d="M0 -78.3L17.6 -24.2L74.5 -24.2L28.5 9.2L46 63.4L0 29.9L-46 63.4L-28.5 9.2L-74.5 -24.2L-17.6 -24.2Z" transform="translate(1855 2117)"></path><path d="M0 -67L15 -20.7L63.7 -20.7L24.3 7.9L39.4 54.2L0 25.6L-39.4 54.2L-24.3 7.9L-63.7 -20.7L-15 -20.7Z" transform="translate(2097 1367)"></path><path d="M0 -184L41.3 -56.9L175 -56.9L66.9 21.7L108.2 148.9L0 70.3L-108.2 148.9L-66.9 21.7L-175 -56.9L-41.3 -56.9Z" transform="translate(941 753)"></path><path d="M0 -68.9L15.5 -21.3L65.5 -21.3L25 8.1L40.5 55.7L0 26.3L-40.5 55.7L-25 8.1L-65.5 -21.3L-15.5 -21.3Z" transform="translate(2201 536)"></path><path d="M0 -144.4L32.4 -44.6L137.3 -44.6L52.5 17L84.9 116.8L0 55.2L-84.9 116.8L-52.5 17L-137.3 -44.6L-32.4 -44.6Z" transform="translate(2071 2997)"></path><path d="M0 -50L11.2 -15.5L47.6 -15.5L18.2 5.9L29.4 40.5L0 19.1L-29.4 40.5L-18.2 5.9L-47.6 -15.5L-11.2 -15.5Z" transform="translate(1097 1347)"></path><path d="M0 -43.4L9.7 -13.4L41.3 -13.4L15.8 5.1L25.5 35.1L0 16.6L-25.5 35.1L-15.8 5.1L-41.3 -13.4L-9.7 -13.4Z" transform="translate(2753 129)"></path><path d="M0 -52.9L11.9 -16.3L50.3 -16.3L19.2 6.2L31.1 42.8L0 20.2L-31.1 42.8L-19.2 6.2L-50.3 -16.3L-11.9 -16.3Z" transform="translate(2927 1549)"></path><path d="M0 -251.1L56.4 -77.6L238.8 -77.6L91.2 29.6L147.6 203.1L0 95.9L-147.6 203.1L-91.2 29.6L-238.8 -77.6L-56.4 -77.6Z" transform="translate(2544 2254)"></path><path d="M0 -273.7L61.5 -84.6L260.3 -84.6L99.4 32.3L160.9 221.4L0 104.5L-160.9 221.4L-99.4 32.3L-260.3 -84.6L-61.5 -84.6Z" transform="translate(2817 2913)"></path><path d="M0 -144.4L32.4 -44.6L137.3 -44.6L52.5 17L84.9 116.8L0 55.2L-84.9 116.8L-52.5 17L-137.3 -44.6L-32.4 -44.6Z" transform="translate(1675 923)"></path><path d="M0 -249.2L55.9 -77L237 -77L90.5 29.4L146.5 201.6L0 95.2L-146.5 201.6L-90.5 29.4L-237 -77L-55.9 -77Z" transform="translate(1199 1986)"></path><path d="M0 -77.4L17.4 -23.9L73.6 -23.9L28.1 9.1L45.5 62.6L0 29.6L-45.5 62.6L-28.1 9.1L-73.6 -23.9L-17.4 -23.9Z" transform="translate(198 820)"></path></g></svg>